<?xml version="1.0" encoding="UTF-8"?>
<svg id="_图层_2" data-name="图层 2" xmlns="http://www.w3.org/2000/svg" viewBox="0 0 512 512">
  <defs>
    <style>
      .cls-1 {
        fill: #3093e5;
      }

      .cls-1, .cls-2 {
        stroke-width: 0px;
      }

      .cls-2 {
        fill: #fff;
      }
    </style>
  </defs>
  <g id="_图层_1-2" data-name="图层 1">
    <g>
      <path class="cls-1" d="M111.11,0h320.89c44.15,0,80,35.85,80,80v320.89c0,61.33-49.79,111.11-111.11,111.11H111.11c-61.33,0-111.11-49.79-111.11-111.11V111.11C0,49.79,49.79,0,111.11,0Z"/>
      <path class="cls-2" d="M196.67,96.56c13.98,9.21,27.61,18.81,41.95,27.62,2.72,1.54,6.81,2.3,9.89,1.16,38.18-13.44,77.05-21.87,117.28-20.35,21.49.76,42.63,4.61,62.4,14.2,40.93,20.33,55.91,61,39.55,108.17-11.92,34.15-32.39,61.38-56.59,84.78-56.59,55.24-122.74,89.78-196.04,105.89-19.45,4.23-38.86,5.75-58.31,8.05-23.18-1.16-45.69-4.23-67.51-13.44-45.35-19.15-62.06-63.27-43.65-113.52,13.3-36.45,36.14-64.45,62.74-89,15.7-14.18,32.73-26.86,49.78-39.51,4.77-3.46,6.81-7.29,6.81-13.44-.34-13.44,0-26.86,0-40.29,0-19.95,16.37-30.3,31.71-20.33v.02ZM92.68,324.44c-10.22,27.6-2.38,60.62,21.82,75.56,13.64,8.43,28.29,11.52,43.31,11.52,35.46,0,69.21-11.13,101.27-27.26,12.6-6.15,24.54-13.8,36.82-20.33-.34-.76-.68-1.52-.68-2.3-1.7.38-3.41,1.16-5.13,1.92-15.69,5.39-31.03,11.9-46.72,16.5-33.07,9.19-66.49,12.66-99.9,2.68-20.45-6.15-38.18-17.26-46.38-41.44-2.38-5.37-3.41-10.74-4.43-16.86h.02ZM313.96,158.33c-6.47,1.14-12.94,3.46-19.43,4.99,3.07,4.23,5.79,6.15,8.86,7.67,18.41,11.5,37.18,22.63,55.57,34.13,15.69,9.97,15.69,28.4,0,38.75-52.85,34.53-106.03,69.05-158.88,103.58-20.79,13.42-35.12,4.21-35.12-22.27v-69.82c-.73-.08-1.43-.34-2.04-.76-14.31,17.64-25.9,37.59-29.65,61.37-5.47,31.84,6.47,52.17,34.44,59.86,19.77,5.37,39.9,2.3,59.34-3.08,46.72-13.42,87.62-39.51,122.4-77.11,19.45-21.09,35.8-45.64,42.63-75.96,6.13-27.24-4.43-49.87-27.61-59.08-16.71-6.53-33.41-5.37-50.46-2.3h0l-.03.04ZM187.81,150.66c0,47.95,0,95.89.32,143.86,0,15.34,11.24,22.25,23.2,14.58,36.82-23.77,73.3-47.57,109.78-71.74,11.24-7.65,11.24-20.33,0-28.38-36.14-24.55-72.62-48.73-108.76-73.28-2.72-1.52-5.79-2.68-7.15-3.45-10.92,0-17.39,6.91-17.39,18.42v-.02ZM301.34,127.65c-11.6,3.83-23.18,8.81-34.78,13.04v4.23c5.13,1.52,10.58,4.61,15.69,4.23,17.05-1.52,34.1-6.91,51.14-6.91,35.8-.76,70.58,3.46,93.07,42.2.68-15.72-2.04-29.92-11.58-41.44-12.96-16.1-30.01-21.85-48.42-23.39-22.16-1.92-43.97,1.14-65.13,8.05h0Z"/>
    </g>
  </g>
</svg>